<?xml version="1.0" standalone="no"?>
<!DOCTYPE svg PUBLIC "-//W3C//DTD SVG 20010904//EN"
 "http://www.w3.org/TR/2001/REC-SVG-20010904/DTD/svg10.dtd">
<svg version="1.0" xmlns="http://www.w3.org/2000/svg"
 width="400.000000pt" height="400.000000pt" viewBox="0 0 400.000000 400.000000"
 preserveAspectRatio="xMidYMid meet">
<metadata>
Created by potrace 1.14, written by Peter Selinger 2001-2017
</metadata>
<g transform="translate(0.000000,400.000000) scale(0.100000,-0.100000)"
fill="#000000" stroke="none">
<path d="M550 3680 c-7 -4 -21 -7 -31 -5 -11 2 -27 -7 -37 -20 -16 -20 -19
-40 -18 -119 1 -56 -3 -98 -9 -100 -7 -3 -7 -5 0 -5 12 -1 13 -530 1 -549 -4
-7 -4 -12 1 -12 4 0 8 -52 8 -115 0 -70 -4 -115 -10 -115 -7 0 -7 -3 0 -8 6
-4 10 -109 10 -277 0 -168 -4 -273 -10 -277 -7 -5 -7 -8 0 -8 6 0 10 -44 10
-112 0 -64 -4 -116 -10 -120 -7 -5 -7 -8 0 -8 12 0 13 -50 2 -67 -5 -7 -5 -13
0 -13 12 0 10 -224 -2 -232 -7 -5 -7 -8 0 -8 12 0 13 -529 1 -548 -4 -7 -4
-12 1 -12 4 0 8 -52 8 -115 0 -70 -4 -115 -10 -115 -7 0 -7 -3 0 -8 6 -4 10
-49 10 -100 0 -81 3 -96 20 -108 16 -12 240 -14 1538 -14 835 0 1522 -2 1527
-5 5 -3 11 1 13 7 4 11 6 11 6 0 1 -10 5 -10 23 0 13 7 27 19 33 26 7 8 10
519 10 1568 l0 1556 -21 17 c-16 13 -39 17 -90 17 -38 -1 -72 4 -76 9 -5 7 -8
6 -8 -1 0 -11 -70 -11 -88 0 -6 3 -13 3 -16 -2 -6 -10 -99 -8 -116 3 -9 6 -11
4 -5 -6 8 -12 6 -12 -8 0 -9 7 -17 9 -17 4 0 -5 -16 -9 -35 -9 -19 0 -35 5
-35 11 0 7 -3 7 -8 0 -9 -14 -65 -14 -74 0 -5 7 -8 7 -8 0 0 -6 -16 -11 -35
-11 -19 0 -35 5 -35 11 0 7 -3 7 -8 -1 -9 -13 -135 -12 -144 1 -5 7 -8 6 -8
-1 0 -12 -49 -12 -68 0 -7 4 -12 4 -12 -1 0 -4 -20 -8 -45 -8 -25 0 -45 4 -45
9 0 5 -6 4 -12 -1 -16 -11 -108 -11 -125 0 -7 5 -13 5 -13 0 0 -4 -20 -8 -45
-8 -25 0 -45 4 -45 9 0 5 -6 4 -12 -1 -16 -11 -98 -10 -117 1 -10 7 -12 5 -6
-5 8 -12 6 -12 -8 0 -9 7 -17 9 -17 4 0 -5 -16 -9 -35 -9 -19 0 -35 5 -35 11
0 6 -3 7 -8 0 -10 -14 -72 -14 -72 -1 0 8 -3 8 -8 1 -4 -6 -20 -11 -37 -11
-16 0 -33 5 -37 11 -5 7 -8 7 -8 -1 0 -12 -98 -13 -118 0 -6 4 -12 3 -12 -1 0
-5 -20 -8 -45 -8 -25 0 -45 4 -45 8 0 4 -8 4 -17 -1 -22 -10 -63 -9 -80 1 -7
5 -13 4 -13 0 0 -12 -124 -10 -132 2 -5 7 -8 6 -8 -1 0 -11 -70 -11 -88 0 -6
3 -13 3 -16 -2 -6 -10 -99 -8 -116 3 -9 6 -11 4 -5 -6 8 -12 6 -12 -8 0 -9 7
-17 9 -17 4 0 -5 -16 -9 -35 -9 -19 0 -35 5 -35 11 0 7 -3 7 -8 0 -4 -6 -20
-11 -37 -11 -16 0 -33 5 -37 11 -5 7 -8 7 -8 0 0 -14 -70 -14 -70 0 0 7 -3 7
-8 -1 -9 -13 -135 -12 -144 1 -5 7 -8 6 -8 -1 0 -12 -49 -12 -68 0 -7 4 -12 4
-12 -1 0 -4 -20 -8 -45 -8 -25 0 -45 4 -45 8 0 5 -6 5 -12 1 -16 -10 -99 -12
-119 -3 -8 4 -21 4 -29 -1z"/>
</g>
</svg>
